<svg width="1920" height="1080" viewBox="0 0 1920 1080" fill="none" xmlns="http://www.w3.org/2000/svg">
<path d="M62.8986 636.018C62.8986 610.175 62.4432 588.464 61.0469 569.092H109.949L112.267 602.368H113.633C124.682 584.809 144.98 563.999 182.812 563.999C212.348 563.999 235.388 580.657 245.061 605.548H246.012C253.844 593.092 263.052 583.867 273.656 577.426C286.112 568.657 300.44 563.999 318.865 563.999C356.223 563.999 394.025 589.386 394.025 661.446V793.891H338.697V669.719C338.697 632.363 325.786 610.175 298.568 610.175C279.201 610.175 264.883 624.029 258.903 640.201C257.527 645.689 256.141 652.656 256.141 659.076V793.891H200.793V663.684C200.793 632.363 188.357 610.175 162.039 610.175C140.861 610.175 126.564 626.793 121.444 642.479C119.157 648.008 118.226 654.489 118.226 660.93V793.891H62.8986V636.018Z" fill="#003D79"/>
<path d="M609.642 739.888C609.642 760.181 610.553 780.009 612.849 793.882H561.65L557.967 768.971H556.571C542.729 786.53 519.203 798.945 490.204 798.945C444.974 798.945 419.617 766.206 419.617 732.029C419.617 675.22 469.845 646.653 552.908 647.098V643.412C552.908 628.638 546.887 604.172 507.223 604.172C485.074 604.172 462.024 611.109 446.805 620.779L435.746 583.858C452.35 573.691 481.401 563.99 516.896 563.99C588.869 563.99 609.642 609.731 609.642 658.622V739.888ZM554.274 684.06C514.134 683.118 475.876 691.878 475.876 726.034C475.876 748.191 490.204 758.358 508.164 758.358C530.728 758.358 547.363 743.543 552.432 727.402C553.798 723.229 554.274 718.652 554.274 714.956V684.06Z" fill="#003D79"/>
<path d="M648.831 636.018C648.831 610.175 648.345 588.464 647.02 569.092H696.782L699.544 602.834H700.951C710.624 585.274 735.081 563.999 772.428 563.999C811.647 563.999 852.212 589.386 852.212 660.504V793.891H795.498V666.985C795.498 634.651 783.477 610.175 752.596 610.175C730.021 610.175 714.307 626.327 708.327 643.421C706.496 648.494 706.02 655.411 706.02 661.851V793.891H648.831V636.018Z" fill="#003D79"/>
<path d="M1098.14 478.796V730.642C1098.14 753.71 1099.09 778.662 1099.99 793.882H1049.28L1046.98 758.358H1046.04C1032.66 783.28 1005.44 798.945 972.717 798.945C919.201 798.945 876.805 753.255 876.805 684.06C876.319 608.8 923.349 564 977.321 564C1008.2 564 1030.35 576.922 1040.49 593.6H1041.43V478.796H1098.14ZM1041.43 662.784C1041.43 658.187 1040.98 652.648 1040.04 648C1034.97 625.893 1017.01 607.878 991.163 607.878C954.727 607.878 934.409 640.192 934.409 682.187C934.409 723.229 954.727 753.255 990.718 753.255C1013.73 753.255 1034.05 737.558 1039.57 713.083C1040.98 708.019 1041.43 702.46 1041.43 696.475V662.784Z" fill="#003D79"/>
<path d="M1138.26 569.094H1195.48V793.882H1138.26V569.094Z" fill="#003D79"/>
<path d="M1235.57 641.578C1235.57 611.107 1235.11 589.386 1233.76 569.092H1283.11L1284.92 611.978H1286.79C1297.86 580.171 1324.13 569.092 1348.16 569.092C1353.66 569.092 1356.89 568.171 1361.48 569.092V618.965C1356.89 618.034 1351.83 617.122 1344.91 617.122C1317.67 617.122 1299.21 634.651 1294.15 659.998C1293.26 665.092 1292.32 671.117 1292.32 677.588V793.891H1235.57V641.578Z" fill="#003D79"/>
<path d="M1387.8 569.094H1444.95V793.882H1387.8V569.094Z" fill="#003D79"/>
<path d="M1376.12 296.964C1341.7 316.933 1229.5 381.085 1229.5 381.085C1187.38 398.462 1155.11 377.297 1144.66 361.783C1144.19 361.196 1143.73 360.497 1143.43 359.92L1142.05 357.561L1134.94 345.935C1131.9 341.135 1128.52 336.194 1124.65 331.12C1121.19 326.685 1117.34 322.29 1113.16 318.047C1086.12 290.696 1042.85 271.485 970.754 305.804C927.153 330.705 825.767 388.73 825.767 388.73C825.756 388.761 825.756 388.761 825.746 388.761C784.028 412.629 751.527 431.201 751.527 431.201L789.927 478.39C806.076 493.793 836.452 519.058 883.442 497.752C883.442 497.752 1013.12 422.603 1013.63 422.381C1124.49 361.49 1179.21 419.677 1203.39 458.461C1204.23 459.656 1204.93 460.983 1205.66 462.157L1205.72 462.208C1206.01 462.674 1206.22 463.12 1206.45 463.565L1209.22 468.051C1220.97 485.925 1239.58 497.468 1261.72 496.942C1273.94 496.699 1282.24 492.709 1294.3 485.995L1419.78 413.166C1419.86 413.125 1419.92 413.074 1420.05 413.054C1532.29 351.424 1587.92 413.408 1611.69 452.183C1613.53 455.545 1615.65 458.735 1617.78 461.732C1629.54 477.691 1645.78 488.152 1666.38 487.636C1679.98 487.362 1695.26 479.19 1697.5 477.691L1847.95 390.816C1847.95 390.816 1832.56 367.586 1800.91 331.364C1772.61 299.05 1742.51 313.673 1718.6 325.571C1708.55 330.533 1635.92 371.738 1635.92 371.738C1596.14 388.163 1565.14 370.239 1552.98 355.161C1551.73 353.561 1550.64 352.082 1549.81 350.624L1547.01 345.713C1542.65 338.351 1537.45 330.047 1531.04 321.845C1527.61 317.399 1523.79 312.953 1519.59 308.751C1502.86 291.84 1479.99 278.058 1447.96 278.048C1427.86 278.048 1404.17 283.475 1376.12 296.964Z" fill="url(#paint0_linear_1908_120)"/>
<defs>
<linearGradient id="paint0_linear_1908_120" x1="742.575" y1="400.201" x2="1914.11" y2="-140.695" gradientUnits="userSpaceOnUse">
<stop stop-color="#FDB913"/>
<stop offset="0.224719" stop-color="#FFCB05"/>
<stop offset="0.393258" stop-color="#FAA61A"/>
<stop offset="0.52809" stop-color="#FFCB05"/>
<stop offset="0.646067" stop-color="#FAA61A"/>
<stop offset="0.764045" stop-color="#FFCB05"/>
<stop offset="1" stop-color="#FFCB05"/>
</linearGradient>
</defs>
</svg>
